<svg width="114" height="114" viewBox="0 0 114 114" fill="none" xmlns="http://www.w3.org/2000/svg">
<path d="M66.5 9.5H28.5C25.9804 9.5 23.5641 10.5009 21.7825 12.2825C20.0009 14.0641 19 16.4804 19 19V95C19 97.5196 20.0009 99.9359 21.7825 101.718C23.5641 103.499 25.9804 104.5 28.5 104.5H85.5C88.0196 104.5 90.4359 103.499 92.2175 101.718C93.9991 99.9359 95 97.5196 95 95V38L66.5 9.5Z" stroke="black" stroke-width="5" stroke-linecap="round" stroke-linejoin="round"/>
<path d="M66.5 9.5V38H95" stroke="black" stroke-width="5" stroke-linecap="round" stroke-linejoin="round"/>
<path d="M76 61.75H38" stroke="black" stroke-width="5" stroke-linecap="round" stroke-linejoin="round"/>
<path d="M76 80.75H38" stroke="black" stroke-width="5" stroke-linecap="round" stroke-linejoin="round"/>
<path d="M47.5 42.75H42.75H38" stroke="black" stroke-width="5" stroke-linecap="round" stroke-linejoin="round"/>
</svg>
